<?xml version="1.0" standalone="no"?>
<!DOCTYPE svg PUBLIC "-//W3C//DTD SVG 20010904//EN"
 "http://www.w3.org/TR/2001/REC-SVG-20010904/DTD/svg10.dtd">
<svg version="1.0" xmlns="http://www.w3.org/2000/svg"
 width="70.000000pt" height="70.000000pt" viewBox="0 0 70.000000 70.000000"
 preserveAspectRatio="xMidYMid meet">
<metadata>
Created by potrace 1.14, written by Peter Selinger 2001-2017
</metadata>
<g transform="translate(0.000000,70.000000) scale(0.100000,-0.100000)"
fill="#000000" stroke="none">
<path d="M193 652 c-6 -4 -13 -18 -14 -32 -3 -20 -10 -26 -39 -28 -19 -2 -38
-7 -42 -11 -4 -3 -8 -61 -9 -128 l-1 -122 -31 -3 c-30 -3 -32 -5 -32 -43 0
-38 2 -40 33 -43 l33 -3 -2 -74 c-1 -41 3 -80 9 -87 16 -20 560 -17 572 2 10
15 12 437 4 483 -5 24 -10 27 -45 27 -34 0 -39 3 -39 24 0 52 -53 57 -64 5 -5
-27 -8 -29 -56 -29 -46 0 -50 2 -56 28 -4 15 -12 30 -18 34 -17 11 -46 -11
-46 -37 0 -24 -3 -25 -55 -25 -52 0 -55 1 -55 25 0 26 -29 48 -47 37z"/>
</g>
</svg>
